# xmcd
#
# Track frame offsets:
#	150
#	23147
#	47297
#	73435
#	92200
#	115162
#	134962
#	157540
#	172920
#	194872
#	214685
#
# Disc length: 3236 seconds
#
# Revision: 0
# Processed by: cddbd v1.5.2PL0 Copyright (c) Steve Scherf et al.
# Submitted via: EasyCDDAExtractor 16.0.9.1
#
DISCID=9c0ca20b
DTITLE=The Jacksons - 2300 Jackson Street
DYEAR=1989
DGENRE=R&B
TTITLE0=Art of Madness
TTITLE1=Nothin' (That Compares 2 U)
TTITLE2=Maria
TTITLE3=Private Affair
TTITLE4=2300 Jackson Street
TTITLE5=Harley
TTITLE6=She
TTITLE7=Alright With Me
TTITLE8=Play It Up
TTITLE9=Midnight Rendezvous
TTITLE10=If You'd Only Believe
EXTD=
EXTT0=
EXTT1=
EXTT2=
EXTT3=
EXTT4=
EXTT5=
EXTT6=
EXTT7=
EXTT8=
EXTT9=
EXTT10=
PLAYORDER=
